<svg enable-background="new 0 0 140 140" height="512" viewBox="0 0 140 140" width="512" xmlns="http://www.w3.org/2000/svg"><circle cx="70" cy="70" fill="#dbd8dd" r="64"/><path d="m44.4393539 76.1569519-8.5199585 20.0899658c-.1400146.3300171-.210022.6500244-.2200317.9500122v.0899658l.0100098 1.210022c-.0200195.5100098.1400146.960022.4500122 1.2800293l34.5939331 34.2039795c34.163208-.3959351 61.880928-27.5485229 63.1836624-61.4864502l-35.507576-35.5075722c-.3900146-.4500122-.9500122-.7399902-1.5800171-.7399902h-50.6400146c-1.1599731 0-2.0899658.9400024-2.0899658 2.0900269v34.2599525c0 1.1500244.9299927 2.0900269 2.0899658 2.0900269h.8500366c-1.1100464 0-2.2800293.6500244-2.6200562 1.4700317z" opacity=".1"/><path d="m96.8496399 36.4483109h-50.642765c-1.154171 0-2.0898056.9356346-2.0898056 2.0898056v34.2579575c0 1.154129.9356346 2.0897675 2.0898056 2.0897675h50.642765c1.1541672 0 2.0898056-.9356384 2.0898056-2.0897675v-34.2579575c0-1.154171-.9356384-2.0898056-2.0898056-2.0898056z" fill="#474c5b"/><path d="m48.043537 40.460529h46.969444v30.413122h-46.969444z" fill="#00abee"/><path d="m107.0799408 97.4592514-8.4578323-19.9451523c-.348671-.8222275-1.5195999-1.4733963-2.6234055-1.4733963h-48.9409332c-1.1037636 0-2.2746964.6511688-2.6233635 1.4733963l-8.4247704 19.8671951-.3146782-.1942139.0146828 1.3078461c-.0539894 1.0336304.6385269 1.7933578 1.8422546 1.7933578h67.9527283c1.0898132 0 1.7583618-.6247406 1.8373566-1.5090027l.019577-1.5107803z" fill="#3a3f49"/><path d="m95.9987183 74.6858444h-48.9409295c-1.1037827 0-2.2747154.6511536-2.6233826 1.4733734l-8.5172729 20.0853348c-.6208267 1.4640274.1021767 2.6888733 1.6347427 2.6888733h67.9527588c1.5325699 0 2.2555771-1.2248459 1.6347504-2.6888733l-8.5172806-20.0853348c-.3486671-.8222198-1.5196037-1.4733734-2.6233863-1.4733734z" fill="#474c5b"/><path d="m99.7111664 87.3892517h-56.365818l3.980999-10.6114807h48.4038162z" fill="#64798a"/><path d="m81.1865997 95.2684021h-19.3166885l.6731605-5.7849884h17.9703637z" fill="#64798a"/><path d="m93.172142 74.2290039h-10.1257171-23.0363388-10.1257554c-.215641 0-.3904762.1748352-.3904762.39048 0 .215683.1748352.3905182.3904762.3905182h10.1257553 23.0363388 10.1257172c.215683 0 .3905182-.1748352.3905182-.3905182 0-.2156448-.1748352-.39048-.3905182-.39048z" fill="#373c47"/><g fill="#d15241"><path d="m58.124836 50.8024216c3.6262016-3.46698 8.3678169-5.3714981 13.4025002-5.3714981 5.0355606 0 9.7780533 1.9045181 13.4042511 5.3714981l-1.6062012 1.6061974c-3.1931534-3.0339317-7.3643723-4.6987457-11.7971725-4.6987457-4.4319229 0-8.604023 1.664814-11.7971764 4.6987457z"/><path d="m78.1612244 56.9507713c-1.8144073-1.6586876-4.1519775-2.5667686-6.6321411-2.5667686-2.4801559 0-4.8177261.9080811-6.6321335 2.5667686l-1.6062012-1.6061974c2.2430801-2.0864868 5.1510391-3.2299004 8.2383347-3.2299004 3.0872879 0 5.9952621 1.1434135 8.238327 3.2299004z"/><path d="m67.4261017 60.1028099c1.137291-.9885674 2.5772705-1.5274658 4.1029816-1.5274658 1.5248413 0 2.9656982.5388985 4.1029892 1.5274658l-1.6140747 1.6131973c-.6884995-.5371475-1.5729599-.8389664-2.4889145-.8389664-.9168243 0-1.8012848.3018188-2.4897842.8389664z"/></g></svg>