<svg enable-background="new 0 0 140 140" height="512" viewBox="0 0 140 140" width="512" xmlns="http://www.w3.org/2000/svg"><circle cx="70" cy="70" fill="#4da0dc" r="64"/><path d="m133.9999847 69.9999695c0-1.3254395-.0532837-2.6379395-.1326904-3.9433594l-33.0308762-33.0307655c-1.0400391-1.130127-2.5300293-1.8498535-4.2000122-1.8498535h-53.2700233c-3.1499634 0-5.7099609 2.5498047-5.7099609 5.699707v27.0302734c0 1.5498085.6199951 2.9599648 1.6300049 3.9897499.0299683.0302734.0599976.0600586.0899658.0900879l2.5800171 2.5800781c-2.4700317.6298828-4.2999878 2.869873-4.2999878 5.5300293v27.0297852c0 1.7602539.7999878 3.3400879 2.0599976 4.380127l26.363224 26.3632812c1.2978516.0783691 2.6027222.1308594 3.9203491.1308594 35.3463134 0 63.9999923-28.6538086 63.9999923-64z" opacity=".1"/><path d="m96.6359863 70.3889847h-53.2719726c-3.1500244 0-5.7034912 2.5534668-5.7034912 5.7033691v27.0332031c0 3.1501465 2.5534668 5.7036133 5.7034912 5.7036133h53.2719727c3.1500244 0 5.7034912-2.5534668 5.7034912-5.7036133v-27.0332031c-.0000001-3.1499023-2.5534669-5.7033691-5.7034913-5.7033691z" fill="#344d5b"/><path d="m96.6359863 31.1708279h-53.2719726c-3.1500244 0-5.7034912 2.5534687-5.7034912 5.703371v27.0332031c0 3.1501465 2.5534668 5.7036133 5.7034912 5.7036133h53.2719727c3.1500244 0 5.7034912-2.5534668 5.7034912-5.7036133v-27.0332031c-.0000001-3.1499023-2.5534669-5.703371-5.7034913-5.703371z" fill="#344d5b"/><path d="m43.658569 37.175362h52.680054v26.439941h-52.680054z" fill="#ededed"/><path d="m53.5299339 76.2915421v5.9702148c0 .5498047-.4500732 1-1 1h-5.960083c-.5499268 0-1-.4501953-1-1v-5.9702148c0-.5400391.4500732-.9897461 1-.9897461h5.960083c.5499268 0 1 .449707 1 .9897461z" fill="#feda6f"/><path d="m50.0599632 81.3716202h-4.4901123v.8901367c0 .5498047.4500732 1 1 1h5.960083c.5499268 0 1-.4501953 1-1v-5.7202148z" fill="#fed35b"/><path d="m63.7549896 76.2915421v5.9702148c0 .5498047-.4500732 1-1 1h-5.960083c-.5499268 0-1-.4501953-1-1v-5.9702148c0-.5400391.4500732-.9897461 1-.9897461h5.960083c.5499268 0 1 .449707 1 .9897461z" fill="#de594e"/><path d="m60.2850189 81.3716202h-4.4901123v.8901367c0 .5498047.4500732 1 1 1h5.960083c.5499268 0 1-.4501953 1-1v-5.7202148z" fill="#cd5248"/><path d="m73.9800415 76.2915421v5.9702148c0 .5498047-.4500732 1-1 1h-5.960083c-.5499268 0-1-.4501953-1-1v-5.9702148c0-.5400391.4500732-.9897461 1-.9897461h5.960083c.5499268 0 1 .449707 1 .9897461z" fill="#4abba4"/><path d="m70.5100708 81.3716202h-4.4901123v.8901367c0 .5498047.4500732 1 1 1h5.960083c.5499268 0 1-.4501953 1-1v-5.7202148z" fill="#41a38e"/><path d="m84.2050934 76.2915421v5.9702148c0 .5498047-.4500732 1-1 1h-5.960083c-.5499268 0-1-.4501953-1-1v-5.9702148c0-.5400391.4500732-.9897461 1-.9897461h5.960083c.5499267 0 1 .449707 1 .9897461z" fill="#ededed"/><path d="m80.7351227 81.3716202h-4.4901123v.8901367c0 .5498047.4500732 1 1 1h5.960083c.5499268 0 1-.4501953 1-1v-5.7202148z" fill="#dbd8dd"/><path d="m94.4301453 76.2915421v5.9702148c0 .5498047-.4500732 1-1 1h-5.960083c-.5499268 0-1-.4501953-1-1v-5.9702148c0-.5400391.4500732-.9897461 1-.9897461h5.960083c.5499267 0 1 .449707 1 .9897461z" fill="#4da0dc"/><path d="m90.9601746 81.3716202h-4.4901123v.8901367c0 .5498047.4500732 1 1 1h5.960083c.5499268 0 1-.4501953 1-1v-5.7202148z" fill="#4288b9"/><path d="m53.5299339 86.6188431v5.9702148c0 .5498047-.4500732 1-1 1h-5.960083c-.5499268 0-1-.4501953-1-1v-5.9702148c0-.5400391.4500732-.9897461 1-.9897461h5.960083c.5499268 0 1 .449707 1 .9897461z" fill="#ededed"/><path d="m50.0599632 91.6989212h-4.4901123v.8901367c0 .5498047.4500732 1 1 1h5.960083c.5499268 0 1-.4501953 1-1v-5.7202148z" fill="#dbd8dd"/><path d="m63.7549896 86.6188431v5.9702148c0 .5498047-.4500732 1-1 1h-5.960083c-.5499268 0-1-.4501953-1-1v-5.9702148c0-.5400391.4500732-.9897461 1-.9897461h5.960083c.5499268 0 1 .449707 1 .9897461z" fill="#4da0dc"/><path d="m60.2850189 91.6989212h-4.4901123v.8901367c0 .5498047.4500732 1 1 1h5.960083c.5499268 0 1-.4501953 1-1v-5.7202148z" fill="#4288b9"/><path d="m73.9800415 86.6188431v5.9702148c0 .5498047-.4500732 1-1 1h-5.960083c-.5499268 0-1-.4501953-1-1v-5.9702148c0-.5400391.4500732-.9897461 1-.9897461h5.960083c.5499268 0 1 .449707 1 .9897461z" fill="#feda6f"/><path d="m70.5100708 91.6989212h-4.4901123v.8901367c0 .5498047.4500732 1 1 1h5.960083c.5499268 0 1-.4501953 1-1v-5.7202148z" fill="#fed35b"/><path d="m84.2050934 86.6188431v5.9702148c0 .5498047-.4500732 1-1 1h-5.960083c-.5499268 0-1-.4501953-1-1v-5.9702148c0-.5400391.4500732-.9897461 1-.9897461h5.960083c.5499267 0 1 .449707 1 .9897461z" fill="#de594e"/><path d="m80.7351227 91.6989212h-4.4901123v.8901367c0 .5498047.4500732 1 1 1h5.960083c.5499268 0 1-.4501953 1-1v-5.7202148z" fill="#cd5248"/><path d="m94.4301453 86.6188431v5.9702148c0 .5498047-.4500732 1-1 1h-5.960083c-.5499268 0-1-.4501953-1-1v-5.9702148c0-.5400391.4500732-.9897461 1-.9897461h5.960083c.5499267 0 1 .449707 1 .9897461z" fill="#feda6f"/><path d="m90.9601746 91.6989212h-4.4901123v.8901367c0 .5498047.4500732 1 1 1h5.960083c.5499268 0 1-.4501953 1-1v-5.7202148z" fill="#fed35b"/><path d="m45.569851 97.277679h48.860298v6.035954h-48.860298z" fill="#293b44"/><path d="m91.741394 69.0406265h-43.482788c-.5493164 0-.994751.4453125-.994751.9946289 0 .5495605.4454346.994873.994751.994873h43.482788c.5493164 0 .994751-.4453125.994751-.994873 0-.5493164-.4454346-.9946289-.994751-.9946289z" fill="#293b44"/><path d="m86.6585693 37.1753616-26.4399414 26.4399414h-5.1400146l26.4400635-26.4399414z" fill="#fff"/><path d="m92.9586182 37.1753616-26.4399414 26.4399414h-2.2299805l26.4399414-26.4399414z" fill="#fff"/><path d="m85.201149 99.6735306c-8.040451-.3537674-15.9653931-.3597717-23.7636833.0153961l-.0019608 1.2198257c7.930706.5603409 15.8610115.5855942 23.7909431.0754929.4529037-.0291443.8002777-.3137741.8008041-.653717.0006028-.3477631-.3618392-.6365662-.8261031-.6569977z" fill="#dbd8dd"/><path d="m61.6595764 99.6894684-.0019722 1.2198334-7.6848602 1.2676849.0060806-3.7626648z" fill="#ededed"/></svg>