<?xml version="1.0" encoding="iso-8859-1"?>
<!-- Generator: Adobe Illustrator 19.0.0, SVG Export Plug-In . SVG Version: 6.00 Build 0)  -->
<svg version="1.1" id="Capa_1" xmlns="http://www.w3.org/2000/svg" xmlns:xlink="http://www.w3.org/1999/xlink" x="0px" y="0px"
	 viewBox="0 0 512 512" style="enable-background:new 0 0 512 512;" xml:space="preserve">
<g>
	<path style="fill:#50596D;" d="M373.768,232.598h9.883c4.716,0,8.539,3.463,8.539,7.734v131.215c0,4.271-3.823,7.734-8.539,7.734
		h-9.883V232.598z"/>
	<path style="fill:#50596D;" d="M85.888,115.052h-9.883c-4.716,0-8.539-3.463-8.539-7.734v-16.51c0-4.271,3.823-7.734,8.539-7.734
		h9.883V115.052z"/>
	<path style="fill:#50596D;" d="M85.888,170.667h-9.883c-4.716,0-8.539-3.463-8.539-7.734v-16.51c0-4.271,3.823-7.734,8.539-7.734
		h9.883V170.667z"/>
	<path style="fill:#50596D;" d="M373.768,151.262h9.883c4.716,0,8.539,3.463,8.539,7.734v16.51c0,4.271-3.823,7.734-8.539,7.734
		h-9.883V151.262z"/>
</g>
<path style="fill:#5C6376;" d="M376.855,31.462v449.076c0,17.379-14.083,31.462-31.451,31.462H114.252
	C96.883,512,82.8,497.917,82.8,480.538V31.462C82.8,14.082,96.883,0,114.252,0h231.152C362.773,0,376.855,14.082,376.855,31.462z"/>
<path style="fill:#4C5568;" d="M376.858,31.462v449.076c0,17.379-14.083,31.462-31.451,31.462h-28.845
	c17.369,0,31.451-14.083,31.451-31.462V31.462C348.013,14.082,333.931,0,316.562,0h28.845C362.776,0,376.858,14.082,376.858,31.462z
	"/>
<path style="fill:#707784;" d="M143.097,512h-28.845C96.883,512,82.8,497.917,82.8,480.538V31.462C82.8,14.082,96.883,0,114.252,0
	h28.845c-17.369,0-31.451,14.082-31.451,31.462v449.076C111.645,497.917,125.728,512,143.097,512z"/>
<rect x="82.8" y="55.959" style="fill:#D1D9E8;" width="294.06" height="408.77"/>
<g>
	<path style="fill:#BCC7D8;" d="M376.855,234.325v195.549c-1.71-0.175-3.379-0.917-4.687-2.236l-78.541-78.541
		c-2.215-2.205-2.874-5.532-1.679-8.417c1.195-2.895,4.018-4.77,7.139-4.77h29.906v-93.86c0-4.265,3.461-7.726,7.726-7.726
		L376.855,234.325L376.855,234.325z"/>
	<path style="fill:#BCC7D8;" d="M316.864,318.391v-93.86h29.911c3.125,0,5.942-1.882,7.138-4.77c1.196-2.887,0.535-6.21-1.675-8.42
		l-78.543-78.543c-1.449-1.449-3.414-2.263-5.463-2.263s-4.015,0.814-5.463,2.263l-78.543,78.543c-2.21,2.21-2.871,5.533-1.675,8.42
		s4.013,4.77,7.138,4.77h29.91v93.86c0,4.267,3.459,7.726,7.726,7.726h81.812C313.405,326.118,316.864,322.659,316.864,318.391z"/>
</g>
<rect x="82.8" y="55.962" style="fill:#E2E9F2;" width="28.848" height="408.77"/>
<rect x="348.01" y="55.96" style="fill:#BCC7D8;" width="28.845" height="408.76"/>
<rect x="82.8" y="55.962" style="fill:#64DDE0;" width="294.06" height="37.887"/>
<rect x="348.01" y="55.962" style="fill:#42C6C6;" width="28.845" height="37.887"/>
<rect x="82.8" y="55.962" style="fill:#86EFEF;" width="28.845" height="37.887"/>
<g>
	<path style="fill:#4C5568;" d="M243.384,36.576h-25.721c-4.267,0-7.726-3.459-7.726-7.726s3.459-7.726,7.726-7.726h25.721
		c4.267,0,7.726,3.459,7.726,7.726S247.651,36.576,243.384,36.576z"/>
	<path style="fill:#4C5568;" d="M189.507,36.576h-1.043c-4.267,0-7.726-3.459-7.726-7.726s3.459-7.726,7.726-7.726h1.043
		c4.267,0,7.726,3.459,7.726,7.726S193.775,36.576,189.507,36.576z"/>
	<path style="fill:#4C5568;" d="M243.384,494.7h-25.721c-4.267,0-7.726-3.459-7.726-7.726s3.459-7.726,7.726-7.726h25.721
		c4.267,0,7.726,3.459,7.726,7.726S247.651,494.7,243.384,494.7z"/>
</g>
<path style="fill:#FF78BF;" d="M418.536,331.471v-93.345c0-4.552-3.69-8.241-8.241-8.241h-65.329c-4.552,0-8.241,3.69-8.241,8.241
	v93.345h-17.741c-7.342,0-11.019,8.877-5.828,14.069l58.646,58.647c3.219,3.218,8.437,3.218,11.655,0l58.646-58.647
	c5.192-5.192,1.515-14.069-5.828-14.069H418.536z"/>
<g>
	<path style="fill:#F261B4;" d="M366.465,398.86l5.34,5.335c3.219,3.216,8.435,3.215,11.652-0.003l58.647-58.647
		c5.192-5.192,1.515-14.069-5.828-14.069h-2.427L366.465,398.86z"/>
	<path style="fill:#F261B4;" d="M418.51,331.471h-20.103V229.885h11.862c4.552,0,8.241,3.69,8.241,8.241V331.471z"/>
</g>
<path style="fill:#64DDE0;" d="M309.138,204.641v93.345c0,4.552-3.69,8.241-8.241,8.241h-65.329c-4.552,0-8.241-3.69-8.241-8.241
	v-93.345h-17.741c-7.342,0-11.019-8.877-5.828-14.069l58.646-58.646c3.219-3.218,8.437-3.218,11.655,0l58.646,58.646
	c5.192,5.192,1.515,14.069-5.828,14.069L309.138,204.641L309.138,204.641z"/>
<g>
	<path style="fill:#42C6C6;" d="M257.067,137.252l5.34-5.335c3.219-3.216,8.435-3.215,11.652,0.003l58.647,58.647
		c5.192,5.192,1.515,14.069-5.828,14.069h-2.427L257.067,137.252z"/>
	<path style="fill:#42C6C6;" d="M309.112,204.641h-20.103v101.586h11.862c4.552,0,8.241-3.69,8.241-8.241V204.641z"/>
</g>
<g>
	<path style="fill:#5C6376;" d="M147.07,335.082h-19.23c-4.267,0-7.726-3.459-7.726-7.726s3.459-7.726,7.726-7.726h19.23
		c4.267,0,7.726,3.459,7.726,7.726S151.337,335.082,147.07,335.082z"/>
	<path style="fill:#5C6376;" d="M185.53,379.503h-57.69c-4.267,0-7.726-3.459-7.726-7.726s3.459-7.726,7.726-7.726h57.69
		c4.267,0,7.726,3.459,7.726,7.726C193.256,376.044,189.797,379.503,185.53,379.503z"/>
	<path style="fill:#5C6376;" d="M185.53,401.771h-57.69c-4.267,0-7.726-3.459-7.726-7.726s3.459-7.726,7.726-7.726h57.69
		c4.267,0,7.726,3.459,7.726,7.726C193.256,398.311,189.797,401.771,185.53,401.771z"/>
	<path style="fill:#5C6376;" d="M185.53,424.038h-57.69c-4.267,0-7.726-3.459-7.726-7.726s3.459-7.726,7.726-7.726h57.69
		c4.267,0,7.726,3.459,7.726,7.726S189.797,424.038,185.53,424.038z"/>
</g>
<g>
</g>
<g>
</g>
<g>
</g>
<g>
</g>
<g>
</g>
<g>
</g>
<g>
</g>
<g>
</g>
<g>
</g>
<g>
</g>
<g>
</g>
<g>
</g>
<g>
</g>
<g>
</g>
<g>
</g>
</svg>
